<svg xmlns="http://www.w3.org/2000/svg" xmlns:xlink="http://www.w3.org/1999/xlink" x="0" y="0" width="662" height="243" style="
        width:662px;
        height:243px;
        background: #FFF;
        fill: none;
">
        
        
        <svg xmlns="http://www.w3.org/2000/svg" class="role-diagram-draw-area"><g class="shapes-region" style="stroke: black; fill: none;"><g class="composite-shape"><path class="real" d=" M24,124.13 C24,117.43 31.07,112 39.78,112 C48.5,112 55.57,117.43 55.57,124.13 C55.57,130.82 48.5,136.25 39.78,136.25 C31.07,136.25 24,130.82 24,124.13 Z" style="stroke-width: 1; stroke: rgb(0, 0, 0); fill: none; fill-opacity: 1;"/></g><g class="arrow-line"><path class="connection real" stroke-dasharray="" d="  M55.57,124.13 L95.18,94.25" style="stroke: rgb(0, 0, 0); stroke-width: 1; fill: none; fill-opacity: 1;"/></g><g class="arrow-line"><path class="connection real" stroke-dasharray="" d="  M55.57,124.13 L95.8,153.25" style="stroke: rgb(0, 0, 0); stroke-width: 1; fill: none; fill-opacity: 1;"/></g><g class="composite-shape"><path class="real" d=" M96.42,94.63 C96.42,87.93 103.49,82.5 112.21,82.5 C120.92,82.5 127.99,87.93 127.99,94.63 C127.99,101.32 120.92,106.75 112.21,106.75 C103.49,106.75 96.42,101.32 96.42,94.63 Z" style="stroke-width: 1; stroke: rgb(0, 0, 0); fill: none; fill-opacity: 1;"/></g><g class="composite-shape"><path class="real" d=" M96.42,153.63 C96.42,146.93 103.49,141.5 112.21,141.5 C120.92,141.5 127.99,146.93 127.99,153.63 C127.99,160.32 120.92,165.75 112.21,165.75 C103.49,165.75 96.42,160.32 96.42,153.63 Z" style="stroke-width: 1; stroke: rgb(0, 0, 0); fill: none; fill-opacity: 1;"/></g><g class="arrow-line"><path class="connection real" stroke-dasharray="" d="  M128.61,94.63 L168.22,64.75" style="stroke: rgb(0, 0, 0); stroke-width: 1; fill: none; fill-opacity: 1;"/></g><g class="composite-shape"><path class="real" d=" M169.46,65.13 C169.46,58.43 176.53,53 185.25,53 C193.96,53 201.03,58.43 201.03,65.13 C201.03,71.82 193.96,77.25 185.25,77.25 C176.53,77.25 169.46,71.82 169.46,65.13 Z" style="stroke-width: 1; stroke: rgb(0, 0, 0); fill: none; fill-opacity: 1;"/></g><g class="arrow-line"><path class="connection real" stroke-dasharray="" d="  M129.23,95.63 L169.46,124.75" style="stroke: rgb(0, 0, 0); stroke-width: 1; fill: none; fill-opacity: 1;"/></g><g class="composite-shape"><path class="real" d=" M170.08,125.13 C170.08,118.43 177.15,113 185.87,113 C194.58,113 201.65,118.43 201.65,125.13 C201.65,131.82 194.58,137.25 185.87,137.25 C177.15,137.25 170.08,131.82 170.08,125.13 Z" style="stroke-width: 1; stroke: rgb(0, 0, 0); fill: none; fill-opacity: 1;"/></g><g class="arrow-line"><path class="connection real" stroke-dasharray="" d="  M127.99,153.63 L170.08,125.13" style="stroke: rgb(0, 0, 0); stroke-width: 1; fill: none; fill-opacity: 1;"/></g><g class="arrow-line"><path class="connection real" stroke-dasharray="" d="  M128.61,154.63 L168.84,183.75" style="stroke: rgb(0, 0, 0); stroke-width: 1; fill: none; fill-opacity: 1;"/></g><g class="composite-shape"><path class="real" d=" M169.46,184.13 C169.46,177.43 176.53,172 185.25,172 C193.96,172 201.03,177.43 201.03,184.13 C201.03,190.82 193.96,196.25 185.25,196.25 C176.53,196.25 169.46,190.82 169.46,184.13 Z" style="stroke-width: 1; stroke: rgb(0, 0, 0); fill: none; fill-opacity: 1;"/></g><g class="arrow-line"><path class="connection real" stroke-dasharray="" d="  M201.65,64.13 L241.27,34.25" style="stroke: rgb(0, 0, 0); stroke-width: 1; fill: none; fill-opacity: 1;"/></g><g class="composite-shape"><path class="real" d=" M242.5,34.63 C242.5,27.93 249.57,22.5 258.29,22.5 C267.01,22.5 274.07,27.93 274.07,34.63 C274.07,41.32 267.01,46.75 258.29,46.75 C249.57,46.75 242.5,41.32 242.5,34.63 Z" style="stroke-width: 1; stroke: rgb(0, 0, 0); fill: none; fill-opacity: 1;"/></g><g class="arrow-line"><path class="connection real" stroke-dasharray="" d="  M202.27,64.13 L242.5,93.25" style="stroke: rgb(0, 0, 0); stroke-width: 1; fill: none; fill-opacity: 1;"/></g><g class="composite-shape"><path class="real" d=" M243.12,93.63 C243.12,86.93 250.19,81.5 258.91,81.5 C267.62,81.5 274.69,86.93 274.69,93.63 C274.69,100.32 267.62,105.75 258.91,105.75 C250.19,105.75 243.12,100.32 243.12,93.63 Z" style="stroke-width: 1; stroke: rgb(0, 0, 0); fill: none; fill-opacity: 1;"/></g><g class="arrow-line"><path class="connection real" stroke-dasharray="" d="  M200.41,121.75 L242.5,93.25" style="stroke: rgb(0, 0, 0); stroke-width: 1; fill: none; fill-opacity: 1;"/></g><g class="arrow-line"><path class="connection real" stroke-dasharray="" d="  M201.65,123.63 L241.88,152.75" style="stroke: rgb(0, 0, 0); stroke-width: 1; fill: none; fill-opacity: 1;"/></g><g class="composite-shape"><path class="real" d=" M242.5,153.13 C242.5,146.43 249.57,141 258.29,141 C267.01,141 274.07,146.43 274.07,153.13 C274.07,159.82 267.01,165.25 258.29,165.25 C249.57,165.25 242.5,159.82 242.5,153.13 Z" style="stroke-width: 1; stroke: rgb(0, 0, 0); fill: none; fill-opacity: 1;"/></g><g class="arrow-line"><path class="connection real" stroke-dasharray="" d="  M200.41,181.63 L242.5,153.13" style="stroke: rgb(0, 0, 0); stroke-width: 1; fill: none; fill-opacity: 1;"/></g><g class="arrow-line"><path class="connection real" stroke-dasharray="" d="  M199.79,182.13 L240.03,211.25" style="stroke: rgb(0, 0, 0); stroke-width: 1; fill: none; fill-opacity: 1;"/></g><g class="composite-shape"><path class="real" d=" M240.65,211.63 C240.65,204.93 247.71,199.5 256.43,199.5 C265.15,199.5 272.22,204.93 272.22,211.63 C272.22,218.32 265.15,223.75 256.43,223.75 C247.71,223.75 240.65,218.32 240.65,211.63 Z" style="stroke-width: 1; stroke: rgb(0, 0, 0); fill: none; fill-opacity: 1;"/></g><g/></g><g/><g/><g/></svg>
        <svg xmlns="http://www.w3.org/2000/svg" xmlns:xlink="http://www.w3.org/1999/xlink" width="660" height="241" style="width:660px;height:241px;font-family:Asana-Math, Asana;background:#FFF;"><g><g><g><g transform="matrix(1,0,0,1,36.9375,126.4)"><path transform="matrix(0.0119,0,0,-0.0119,0,0)" d="M31 148C26 97 20 62 9 16C47 -2 81 -11 116 -11C165 -11 211 7 262 47C313 87 334 124 334 174C334 228 302 257 228 271L185 279C125 290 106 307 106 348C106 401 151 442 208 442C249 442 287 424 303 397L303 342L326 342C330 377 334 404 345 455C306 474 278 482 245 482C193 482 132 452 84 404C58 377 47 352 47 316C47 260 78 228 144 215L207 203C251 195 267 177 267 138C267 73 221 29 150 29C115 29 84 40 56 64L56 148Z" stroke="rgb(0,0,0)" stroke-opacity="1" stroke-width="8" fill="rgb(0,0,0)" fill-opacity="1"></path></g></g></g></g><g><g><g><g transform="matrix(1,0,0,1,107.625,97.4)"><path transform="matrix(0.0119,0,0,-0.0119,0,0)" d="M31 148C26 97 20 62 9 16C47 -2 81 -11 116 -11C165 -11 211 7 262 47C313 87 334 124 334 174C334 228 302 257 228 271L185 279C125 290 106 307 106 348C106 401 151 442 208 442C249 442 287 424 303 397L303 342L326 342C330 377 334 404 345 455C306 474 278 482 245 482C193 482 132 452 84 404C58 377 47 352 47 316C47 260 78 228 144 215L207 203C251 195 267 177 267 138C267 73 221 29 150 29C115 29 84 40 56 64L56 148ZM880 473L873 482L805 465L795 414C780 336 755 268 724 221C665 130 587 59 547 59C539 59 534 68 534 85C534 99 536 112 541 137L598 408C601 424 603 438 603 451C603 470 594 482 580 482C560 482 522 461 448 408L420 388L427 368L459 389C487 407 498 412 507 412C516 412 524 403 524 392C524 388 523 378 522 374L459 77C457 68 455 44 455 30C455 7 470 -11 490 -11C553 -11 674 101 758 239L721 97C714 73 710 46 710 31C710 6 721 -9 740 -9C766 -9 802 12 900 85L890 103L864 86C840 70 814 59 803 59C795 59 790 66 790 76C790 112 865 416 880 473Z" stroke="rgb(0,0,0)" stroke-opacity="1" stroke-width="8" fill="rgb(0,0,0)" fill-opacity="1"></path></g></g></g></g><g><g><g><g transform="matrix(1,0,0,1,107.015625,156.4)"><path transform="matrix(0.0119,0,0,-0.0119,0,0)" d="M31 148C26 97 20 62 9 16C47 -2 81 -11 116 -11C165 -11 211 7 262 47C313 87 334 124 334 174C334 228 302 257 228 271L185 279C125 290 106 307 106 348C106 401 151 442 208 442C249 442 287 424 303 397L303 342L326 342C330 377 334 404 345 455C306 474 278 482 245 482C193 482 132 452 84 404C58 377 47 352 47 316C47 260 78 228 144 215L207 203C251 195 267 177 267 138C267 73 221 29 150 29C115 29 84 40 56 64L56 148ZM871 722L859 733C807 707 771 698 699 691L695 670L743 670C767 670 777 663 777 646C777 638 776 629 775 622L747 468C717 477 690 482 665 482C596 482 502 410 456 323C425 265 405 170 405 86C405 21 420 -11 449 -11C476 -11 513 6 547 33C601 77 634 116 701 217L678 126C667 82 662 50 662 24C662 3 671 -9 688 -9C705 -9 729 3 763 28L844 88L834 107L790 76C776 66 760 59 751 59C743 59 737 68 737 82C737 90 738 99 745 128ZM502 59C486 59 477 73 477 98C477 224 523 380 572 418C585 428 604 433 631 433C675 433 704 427 737 410L725 351C688 171 547 59 502 59Z" stroke="rgb(0,0,0)" stroke-opacity="1" stroke-width="8" fill="rgb(0,0,0)" fill-opacity="1"></path></g></g></g></g><g><g><g><g transform="matrix(1,0,0,1,178.28125,68.009375)"><path transform="matrix(0.0119,0,0,-0.0119,0,0)" d="M31 148C26 97 20 62 9 16C47 -2 81 -11 116 -11C165 -11 211 7 262 47C313 87 334 124 334 174C334 228 302 257 228 271L185 279C125 290 106 307 106 348C106 401 151 442 208 442C249 442 287 424 303 397L303 342L326 342C330 377 334 404 345 455C306 474 278 482 245 482C193 482 132 452 84 404C58 377 47 352 47 316C47 260 78 228 144 215L207 203C251 195 267 177 267 138C267 73 221 29 150 29C115 29 84 40 56 64L56 148ZM880 473L873 482L805 465L795 414C780 336 755 268 724 221C665 130 587 59 547 59C539 59 534 68 534 85C534 99 536 112 541 137L598 408C601 424 603 438 603 451C603 470 594 482 580 482C560 482 522 461 448 408L420 388L427 368L459 389C487 407 498 412 507 412C516 412 524 403 524 392C524 388 523 378 522 374L459 77C457 68 455 44 455 30C455 7 470 -11 490 -11C553 -11 674 101 758 239L721 97C714 73 710 46 710 31C710 6 721 -9 740 -9C766 -9 802 12 900 85L890 103L864 86C840 70 814 59 803 59C795 59 790 66 790 76C790 112 865 416 880 473Z" stroke="rgb(0,0,0)" stroke-opacity="1" stroke-width="8" fill="rgb(0,0,0)" fill-opacity="1"></path></g></g><g><g><g><g><g transform="matrix(1,0,0,1,190.1875,63.33)"><path transform="matrix(0.00833,0,0,-0.00833,0,0)" d="M16 23L16 -3C203 -3 203 0 239 0C275 0 275 -3 468 -3L468 82C353 77 307 81 122 77L304 270C401 373 431 428 431 503C431 618 353 689 226 689C154 689 105 669 56 619L39 483L68 483L81 529C97 587 133 612 200 612C286 612 341 558 341 473C341 398 299 324 186 204Z" stroke="rgb(0,0,0)" stroke-opacity="1" stroke-width="8" fill="rgb(0,0,0)" fill-opacity="1"></path></g></g></g></g></g></g></g><g><g><g><g transform="matrix(1,0,0,1,178.28125,128.9)"><path transform="matrix(0.0119,0,0,-0.0119,0,0)" d="M31 148C26 97 20 62 9 16C47 -2 81 -11 116 -11C165 -11 211 7 262 47C313 87 334 124 334 174C334 228 302 257 228 271L185 279C125 290 106 307 106 348C106 401 151 442 208 442C249 442 287 424 303 397L303 342L326 342C330 377 334 404 345 455C306 474 278 482 245 482C193 482 132 452 84 404C58 377 47 352 47 316C47 260 78 228 144 215L207 203C251 195 267 177 267 138C267 73 221 29 150 29C115 29 84 40 56 64L56 148ZM880 473L873 482L805 465L795 414C780 336 755 268 724 221C665 130 587 59 547 59C539 59 534 68 534 85C534 99 536 112 541 137L598 408C601 424 603 438 603 451C603 470 594 482 580 482C560 482 522 461 448 408L420 388L427 368L459 389C487 407 498 412 507 412C516 412 524 403 524 392C524 388 523 378 522 374L459 77C457 68 455 44 455 30C455 7 470 -11 490 -11C553 -11 674 101 758 239L721 97C714 73 710 46 710 31C710 6 721 -9 740 -9C766 -9 802 12 900 85L890 103L864 86C840 70 814 59 803 59C795 59 790 66 790 76C790 112 865 416 880 473ZM1426 722L1414 733C1362 707 1326 698 1254 691L1250 670L1298 670C1322 670 1332 663 1332 646C1332 638 1331 629 1330 622L1302 468C1272 477 1245 482 1220 482C1151 482 1057 410 1011 323C980 265 960 170 960 86C960 21 975 -11 1004 -11C1031 -11 1068 6 1102 33C1156 77 1189 116 1256 217L1233 126C1222 82 1217 50 1217 24C1217 3 1226 -9 1243 -9C1260 -9 1284 3 1318 28L1399 88L1389 107L1345 76C1331 66 1315 59 1306 59C1298 59 1292 68 1292 82C1292 90 1293 99 1300 128ZM1057 59C1041 59 1032 73 1032 98C1032 224 1078 380 1127 418C1140 428 1159 433 1186 433C1230 433 1259 427 1292 410L1280 351C1243 171 1102 59 1057 59Z" stroke="rgb(0,0,0)" stroke-opacity="1" stroke-width="8" fill="rgb(0,0,0)" fill-opacity="1"></path></g></g></g></g><g><g><g><g transform="matrix(1,0,0,1,178.171875,188.509375)"><path transform="matrix(0.0119,0,0,-0.0119,0,0)" d="M31 148C26 97 20 62 9 16C47 -2 81 -11 116 -11C165 -11 211 7 262 47C313 87 334 124 334 174C334 228 302 257 228 271L185 279C125 290 106 307 106 348C106 401 151 442 208 442C249 442 287 424 303 397L303 342L326 342C330 377 334 404 345 455C306 474 278 482 245 482C193 482 132 452 84 404C58 377 47 352 47 316C47 260 78 228 144 215L207 203C251 195 267 177 267 138C267 73 221 29 150 29C115 29 84 40 56 64L56 148ZM871 722L859 733C807 707 771 698 699 691L695 670L743 670C767 670 777 663 777 646C777 638 776 629 775 622L747 468C717 477 690 482 665 482C596 482 502 410 456 323C425 265 405 170 405 86C405 21 420 -11 449 -11C476 -11 513 6 547 33C601 77 634 116 701 217L678 126C667 82 662 50 662 24C662 3 671 -9 688 -9C705 -9 729 3 763 28L844 88L834 107L790 76C776 66 760 59 751 59C743 59 737 68 737 82C737 90 738 99 745 128ZM502 59C486 59 477 73 477 98C477 224 523 380 572 418C585 428 604 433 631 433C675 433 704 427 737 410L725 351C688 171 547 59 502 59Z" stroke="rgb(0,0,0)" stroke-opacity="1" stroke-width="8" fill="rgb(0,0,0)" fill-opacity="1"></path></g></g><g><g><g><g><g transform="matrix(1,0,0,1,189.40625,183.83)"><path transform="matrix(0.00833,0,0,-0.00833,0,0)" d="M16 23L16 -3C203 -3 203 0 239 0C275 0 275 -3 468 -3L468 82C353 77 307 81 122 77L304 270C401 373 431 428 431 503C431 618 353 689 226 689C154 689 105 669 56 619L39 483L68 483L81 529C97 587 133 612 200 612C286 612 341 558 341 473C341 398 299 324 186 204Z" stroke="rgb(0,0,0)" stroke-opacity="1" stroke-width="8" fill="rgb(0,0,0)" fill-opacity="1"></path></g></g></g></g></g></g></g><g><g><g><g transform="matrix(1,0,0,1,251.328125,37.509375)"><path transform="matrix(0.0119,0,0,-0.0119,0,0)" d="M31 148C26 97 20 62 9 16C47 -2 81 -11 116 -11C165 -11 211 7 262 47C313 87 334 124 334 174C334 228 302 257 228 271L185 279C125 290 106 307 106 348C106 401 151 442 208 442C249 442 287 424 303 397L303 342L326 342C330 377 334 404 345 455C306 474 278 482 245 482C193 482 132 452 84 404C58 377 47 352 47 316C47 260 78 228 144 215L207 203C251 195 267 177 267 138C267 73 221 29 150 29C115 29 84 40 56 64L56 148ZM880 473L873 482L805 465L795 414C780 336 755 268 724 221C665 130 587 59 547 59C539 59 534 68 534 85C534 99 536 112 541 137L598 408C601 424 603 438 603 451C603 470 594 482 580 482C560 482 522 461 448 408L420 388L427 368L459 389C487 407 498 412 507 412C516 412 524 403 524 392C524 388 523 378 522 374L459 77C457 68 455 44 455 30C455 7 470 -11 490 -11C553 -11 674 101 758 239L721 97C714 73 710 46 710 31C710 6 721 -9 740 -9C766 -9 802 12 900 85L890 103L864 86C840 70 814 59 803 59C795 59 790 66 790 76C790 112 865 416 880 473Z" stroke="rgb(0,0,0)" stroke-opacity="1" stroke-width="8" fill="rgb(0,0,0)" fill-opacity="1"></path></g></g><g><g><g><g><g transform="matrix(1,0,0,1,263.234375,32.83)"><path transform="matrix(0.00833,0,0,-0.00833,0,0)" d="M462 224C462 345 355 366 308 374C388 436 418 482 418 541C418 630 344 689 233 689C165 689 120 670 72 622L43 498L74 498L92 554C103 588 166 622 218 622C283 622 336 569 336 506C336 431 277 368 206 368C198 368 187 369 174 370L159 371L147 318L154 312C192 329 211 334 238 334C321 334 369 281 369 190C369 88 308 21 215 21C169 21 128 36 98 64C74 86 61 109 42 163L15 153C36 92 44 56 50 6C103 -12 147 -20 184 -20C307 -20 462 87 462 224Z" stroke="rgb(0,0,0)" stroke-opacity="1" stroke-width="8" fill="rgb(0,0,0)" fill-opacity="1"></path></g></g></g></g></g></g></g><g><g><g><g transform="matrix(1,0,0,1,247.6875,97.009375)"><path transform="matrix(0.0119,0,0,-0.0119,0,0)" d="M31 148C26 97 20 62 9 16C47 -2 81 -11 116 -11C165 -11 211 7 262 47C313 87 334 124 334 174C334 228 302 257 228 271L185 279C125 290 106 307 106 348C106 401 151 442 208 442C249 442 287 424 303 397L303 342L326 342C330 377 334 404 345 455C306 474 278 482 245 482C193 482 132 452 84 404C58 377 47 352 47 316C47 260 78 228 144 215L207 203C251 195 267 177 267 138C267 73 221 29 150 29C115 29 84 40 56 64L56 148ZM880 473L873 482L805 465L795 414C780 336 755 268 724 221C665 130 587 59 547 59C539 59 534 68 534 85C534 99 536 112 541 137L598 408C601 424 603 438 603 451C603 470 594 482 580 482C560 482 522 461 448 408L420 388L427 368L459 389C487 407 498 412 507 412C516 412 524 403 524 392C524 388 523 378 522 374L459 77C457 68 455 44 455 30C455 7 470 -11 490 -11C553 -11 674 101 758 239L721 97C714 73 710 46 710 31C710 6 721 -9 740 -9C766 -9 802 12 900 85L890 103L864 86C840 70 814 59 803 59C795 59 790 66 790 76C790 112 865 416 880 473Z" stroke="rgb(0,0,0)" stroke-opacity="1" stroke-width="8" fill="rgb(0,0,0)" fill-opacity="1"></path></g></g><g><g><g><g><g transform="matrix(1,0,0,1,259.59375,92.33)"><path transform="matrix(0.00833,0,0,-0.00833,0,0)" d="M16 23L16 -3C203 -3 203 0 239 0C275 0 275 -3 468 -3L468 82C353 77 307 81 122 77L304 270C401 373 431 428 431 503C431 618 353 689 226 689C154 689 105 669 56 619L39 483L68 483L81 529C97 587 133 612 200 612C286 612 341 558 341 473C341 398 299 324 186 204Z" stroke="rgb(0,0,0)" stroke-opacity="1" stroke-width="8" fill="rgb(0,0,0)" fill-opacity="1"></path></g></g></g></g></g><g><g transform="matrix(1,0,0,1,264.46875,97.009375)"><path transform="matrix(0.0119,0,0,-0.0119,0,0)" d="M483 722L471 733C419 707 383 698 311 691L307 670L355 670C379 670 389 663 389 646C389 638 388 629 387 622L359 468C329 477 302 482 277 482C208 482 114 410 68 323C37 265 17 170 17 86C17 21 32 -11 61 -11C88 -11 125 6 159 33C213 77 246 116 313 217L290 126C279 82 274 50 274 24C274 3 283 -9 300 -9C317 -9 341 3 375 28L456 88L446 107L402 76C388 66 372 59 363 59C355 59 349 68 349 82C349 90 350 99 357 128ZM114 59C98 59 89 73 89 98C89 224 135 380 184 418C197 428 216 433 243 433C287 433 316 427 349 410L337 351C300 171 159 59 114 59Z" stroke="rgb(0,0,0)" stroke-opacity="1" stroke-width="8" fill="rgb(0,0,0)" fill-opacity="1"></path></g></g><g><g><g></g></g></g></g></g><g><g><g><g transform="matrix(1,0,0,1,248.328125,157.509375)"><path transform="matrix(0.0119,0,0,-0.0119,0,0)" d="M31 148C26 97 20 62 9 16C47 -2 81 -11 116 -11C165 -11 211 7 262 47C313 87 334 124 334 174C334 228 302 257 228 271L185 279C125 290 106 307 106 348C106 401 151 442 208 442C249 442 287 424 303 397L303 342L326 342C330 377 334 404 345 455C306 474 278 482 245 482C193 482 132 452 84 404C58 377 47 352 47 316C47 260 78 228 144 215L207 203C251 195 267 177 267 138C267 73 221 29 150 29C115 29 84 40 56 64L56 148ZM880 473L873 482L805 465L795 414C780 336 755 268 724 221C665 130 587 59 547 59C539 59 534 68 534 85C534 99 536 112 541 137L598 408C601 424 603 438 603 451C603 470 594 482 580 482C560 482 522 461 448 408L420 388L427 368L459 389C487 407 498 412 507 412C516 412 524 403 524 392C524 388 523 378 522 374L459 77C457 68 455 44 455 30C455 7 470 -11 490 -11C553 -11 674 101 758 239L721 97C714 73 710 46 710 31C710 6 721 -9 740 -9C766 -9 802 12 900 85L890 103L864 86C840 70 814 59 803 59C795 59 790 66 790 76C790 112 865 416 880 473ZM1426 722L1414 733C1362 707 1326 698 1254 691L1250 670L1298 670C1322 670 1332 663 1332 646C1332 638 1331 629 1330 622L1302 468C1272 477 1245 482 1220 482C1151 482 1057 410 1011 323C980 265 960 170 960 86C960 21 975 -11 1004 -11C1031 -11 1068 6 1102 33C1156 77 1189 116 1256 217L1233 126C1222 82 1217 50 1217 24C1217 3 1226 -9 1243 -9C1260 -9 1284 3 1318 28L1399 88L1389 107L1345 76C1331 66 1315 59 1306 59C1298 59 1292 68 1292 82C1292 90 1293 99 1300 128ZM1057 59C1041 59 1032 73 1032 98C1032 224 1078 380 1127 418C1140 428 1159 433 1186 433C1230 433 1259 427 1292 410L1280 351C1243 171 1102 59 1057 59Z" stroke="rgb(0,0,0)" stroke-opacity="1" stroke-width="8" fill="rgb(0,0,0)" fill-opacity="1"></path></g></g><g><g><g><g><g transform="matrix(1,0,0,1,266.171875,152.83)"><path transform="matrix(0.00833,0,0,-0.00833,0,0)" d="M16 23L16 -3C203 -3 203 0 239 0C275 0 275 -3 468 -3L468 82C353 77 307 81 122 77L304 270C401 373 431 428 431 503C431 618 353 689 226 689C154 689 105 669 56 619L39 483L68 483L81 529C97 587 133 612 200 612C286 612 341 558 341 473C341 398 299 324 186 204Z" stroke="rgb(0,0,0)" stroke-opacity="1" stroke-width="8" fill="rgb(0,0,0)" fill-opacity="1"></path></g></g></g></g></g></g></g><g><g><g><g transform="matrix(1,0,0,1,249.359375,216.009375)"><path transform="matrix(0.0119,0,0,-0.0119,0,0)" d="M31 148C26 97 20 62 9 16C47 -2 81 -11 116 -11C165 -11 211 7 262 47C313 87 334 124 334 174C334 228 302 257 228 271L185 279C125 290 106 307 106 348C106 401 151 442 208 442C249 442 287 424 303 397L303 342L326 342C330 377 334 404 345 455C306 474 278 482 245 482C193 482 132 452 84 404C58 377 47 352 47 316C47 260 78 228 144 215L207 203C251 195 267 177 267 138C267 73 221 29 150 29C115 29 84 40 56 64L56 148ZM871 722L859 733C807 707 771 698 699 691L695 670L743 670C767 670 777 663 777 646C777 638 776 629 775 622L747 468C717 477 690 482 665 482C596 482 502 410 456 323C425 265 405 170 405 86C405 21 420 -11 449 -11C476 -11 513 6 547 33C601 77 634 116 701 217L678 126C667 82 662 50 662 24C662 3 671 -9 688 -9C705 -9 729 3 763 28L844 88L834 107L790 76C776 66 760 59 751 59C743 59 737 68 737 82C737 90 738 99 745 128ZM502 59C486 59 477 73 477 98C477 224 523 380 572 418C585 428 604 433 631 433C675 433 704 427 737 410L725 351C688 171 547 59 502 59Z" stroke="rgb(0,0,0)" stroke-opacity="1" stroke-width="8" fill="rgb(0,0,0)" fill-opacity="1"></path></g></g><g><g><g><g><g transform="matrix(1,0,0,1,260.59375,211.33)"><path transform="matrix(0.00833,0,0,-0.00833,0,0)" d="M462 224C462 345 355 366 308 374C388 436 418 482 418 541C418 630 344 689 233 689C165 689 120 670 72 622L43 498L74 498L92 554C103 588 166 622 218 622C283 622 336 569 336 506C336 431 277 368 206 368C198 368 187 369 174 370L159 371L147 318L154 312C192 329 211 334 238 334C321 334 369 281 369 190C369 88 308 21 215 21C169 21 128 36 98 64C74 86 61 109 42 163L15 153C36 92 44 56 50 6C103 -12 147 -20 184 -20C307 -20 462 87 462 224Z" stroke="rgb(0,0,0)" stroke-opacity="1" stroke-width="8" fill="rgb(0,0,0)" fill-opacity="1"></path></g></g></g></g></g></g></g></svg>
</svg>
